<?xml version="1.0" encoding="UTF-8" standalone="no"?>
<!-- Created with Inkscape (http://www.inkscape.org/) -->

<svg
   xmlns:dc="http://purl.org/dc/elements/1.1/"
   xmlns:cc="http://creativecommons.org/ns#"
   xmlns:rdf="http://www.w3.org/1999/02/22-rdf-syntax-ns#"
   xmlns:svg="http://www.w3.org/2000/svg"
   xmlns="http://www.w3.org/2000/svg"
   xmlns:sodipodi="http://sodipodi.sourceforge.net/DTD/sodipodi-0.dtd"
   xmlns:inkscape="http://www.inkscape.org/namespaces/inkscape"
   version="1.1"
   id="svg2"
   xml:space="preserve"
   width="192"
   height="192"
   viewBox="0 0 192 192"
   sodipodi:docname="icon3.svg"
   inkscape:version="0.92.2 (unknown)"
   inkscape:export-filename="/home/cpr/ionic/sunlightmap_app/resources/android/icon/drawable-xxxhdpi-icon.png"
   inkscape:export-xdpi="96"
   inkscape:export-ydpi="96"><metadata
     id="metadata8"><rdf:RDF><cc:Work
         rdf:about=""><dc:format>image/svg+xml</dc:format><dc:type
           rdf:resource="http://purl.org/dc/dcmitype/StillImage" /><dc:title></dc:title></cc:Work></rdf:RDF></metadata><defs
     id="defs6"><clipPath
       clipPathUnits="userSpaceOnUse"
       id="clipPath20"><path
         d="M 0,108 H 108 V 0 H 0 Z"
         id="path18"
         inkscape:connector-curvature="0" /></clipPath><clipPath
       clipPathUnits="userSpaceOnUse"
       id="clipPath30"><path
         d="M 0,108 H 108 V 0 H 0 Z"
         id="path28"
         inkscape:connector-curvature="0" /></clipPath><clipPath
       clipPathUnits="userSpaceOnUse"
       id="clipPath38"><path
         d="M -0.0706177,108.071 H 108.071 V -0.0706635 H -0.0706177 Z"
         id="path36"
         inkscape:connector-curvature="0" /></clipPath><clipPath
       clipPathUnits="userSpaceOnUse"
       id="clipPath42"><path
         d="M -0.0352631,108.035 H 108.035 V -0.0353088 H -0.0352631 Z"
         id="path40"
         inkscape:connector-curvature="0" /></clipPath><clipPath
       clipPathUnits="userSpaceOnUse"
       id="clipPath46"><path
         d="M -0.0352631,108.035 H 108.035 V -0.0353088 H -0.0352631 Z"
         id="path44"
         inkscape:connector-curvature="0" /></clipPath><clipPath
       clipPathUnits="userSpaceOnUse"
       id="clipPath90"><path
         d="M 28,80 H 80 V 28 H 28 Z"
         id="path88"
         inkscape:connector-curvature="0" /></clipPath><clipPath
       clipPathUnits="userSpaceOnUse"
       id="clipPath106"><path
         d="M 36,72 H 72 V 36 H 36 Z"
         id="path104"
         inkscape:connector-curvature="0" /></clipPath><clipPath
       clipPathUnits="userSpaceOnUse"
       id="clipPath122"><path
         d="M 27.9,72.1 H 80.1 V 35.9 H 27.9 Z"
         id="path120"
         inkscape:connector-curvature="0" /></clipPath><clipPath
       clipPathUnits="userSpaceOnUse"
       id="clipPath138"><path
         d="M 35.9,80.1 H 72.1 V 27.9 H 35.9 Z"
         id="path136"
         inkscape:connector-curvature="0" /></clipPath><clipPath
       clipPathUnits="userSpaceOnUse"
       id="clipPath154"><path
         d="M 31.9,76.1 H 76.1 V 31.9 H 31.9 Z"
         id="path152"
         inkscape:connector-curvature="0" /></clipPath><clipPath
       clipPathUnits="userSpaceOnUse"
       id="clipPath170"><path
         d="M 18,90 H 90 V 18 H 18 Z"
         id="path168"
         inkscape:connector-curvature="0" /></clipPath><clipPath
       clipPathUnits="userSpaceOnUse"
       id="clipPath122-2"><path
         d="M 27.9,72.1 H 80.1 V 35.9 H 27.9 Z"
         id="path120-8"
         inkscape:connector-curvature="0" /></clipPath><clipPath
       clipPathUnits="userSpaceOnUse"
       id="clipPath106-4"><path
         d="M 36,72 H 72 V 36 H 36 Z"
         id="path104-7"
         inkscape:connector-curvature="0" /></clipPath><clipPath
       clipPathUnits="userSpaceOnUse"
       id="clipPath122-3"><path
         d="M 27.9,72.1 H 80.1 V 35.9 H 27.9 Z"
         id="path120-4"
         inkscape:connector-curvature="0" /></clipPath><filter
       style="color-interpolation-filters:sRGB"
       inkscape:label="Drop Shadow"
       id="filter6774"><feFlood
         flood-opacity="1"
         flood-color="rgb(238,232,213)"
         result="flood"
         id="feFlood6764" /><feComposite
         in="flood"
         in2="SourceGraphic"
         operator="in"
         result="composite1"
         id="feComposite6766" /><feGaussianBlur
         in="composite1"
         stdDeviation="4"
         result="blur"
         id="feGaussianBlur6768" /><feOffset
         dx="0"
         dy="4"
         result="offset"
         id="feOffset6770" /><feComposite
         in="SourceGraphic"
         in2="offset"
         operator="over"
         result="composite2"
         id="feComposite6772" /></filter><clipPath
       clipPathUnits="userSpaceOnUse"
       id="clipPath170-8"><path
         d="M 18,90 H 90 V 18 H 18 Z"
         id="path168-4"
         inkscape:connector-curvature="0" /></clipPath><clipPath
       clipPathUnits="userSpaceOnUse"
       id="clipPath170-5"><path
         d="M 18,90 H 90 V 18 H 18 Z"
         id="path168-2"
         inkscape:connector-curvature="0" /></clipPath><filter
       inkscape:collect="always"
       style="color-interpolation-filters:sRGB"
       id="filter6889"
       x="-0.012"
       width="1.024"
       y="-0.012"
       height="1.024"><feGaussianBlur
         inkscape:collect="always"
         stdDeviation="0.15"
         id="feGaussianBlur6891" /></filter></defs><sodipodi:namedview
     pagecolor="#ffffff"
     bordercolor="#666666"
     borderopacity="1"
     objecttolerance="10"
     gridtolerance="10"
     guidetolerance="10"
     inkscape:pageopacity="0"
     inkscape:pageshadow="2"
     inkscape:window-width="1073"
     inkscape:window-height="480"
     id="namedview4"
     showgrid="false"
     inkscape:zoom="1.7604167"
     inkscape:cx="95.715976"
     inkscape:cy="96"
     inkscape:window-x="206"
     inkscape:window-y="84"
     inkscape:window-maximized="0"
     inkscape:current-layer="layer1"
     fit-margin-top="0"
     fit-margin-left="0"
     fit-margin-right="0"
     fit-margin-bottom="0" /><g
     id="g10"
     inkscape:groupmode="layer"
     inkscape:label="stickersheet-android-icons-20170807"
     transform="matrix(1.3333333,0,0,-1.3333333,0.09414757,191.90578)"
     style="display:none"><path
       d="M 0.02340429,0.02343932 H 143.83511 V 143.83518 H 0.02340429 Z"
       style="fill:#ffffff;fill-opacity:1;fill-rule:nonzero;stroke:none;stroke-width:1.33158994"
       id="path12"
       inkscape:connector-curvature="0" /><g
       id="g14"
       transform="matrix(1.3315899,0,0,1.3315901,0.02340429,0.02343932)"><g
         id="g16"
         clip-path="url(#clipPath20)"><path
           d="M 108,0 H 0 v 108 h 108 z"
           style="fill:none;stroke:#000000;stroke-width:0.30000001;stroke-linecap:butt;stroke-linejoin:miter;stroke-miterlimit:10;stroke-dasharray:none;stroke-opacity:1"
           id="path22"
           inkscape:connector-curvature="0" /></g></g><g
       id="g32"
       transform="matrix(1.3315899,0,0,1.3315901,0.02340429,0.02343932)"><g
         id="g34" /><g
         id="g82"><g
           clip-path="url(#clipPath38)"
           id="g80"
           style="opacity:0.10000598"><g
             id="g58"><g
               id="g48" /><g
               id="g56"><g
                 clip-path="url(#clipPath42)"
                 id="g54"
                 style="opacity:0.39999402"><g
                   transform="translate(1e-4,108)"
                   id="g52"><path
                     d="M 0,0 108,-108"
                     style="fill:none;stroke:#000000;stroke-width:0.1;stroke-linecap:butt;stroke-linejoin:miter;stroke-miterlimit:10;stroke-dasharray:none;stroke-opacity:1"
                     id="path50"
                     inkscape:connector-curvature="0" /></g></g></g></g><g
             id="g70"><g
               id="g60" /><g
               id="g68"><g
                 clip-path="url(#clipPath46)"
                 id="g66"
                 style="opacity:0.10000598"><g
                   transform="translate(108.0001,108)"
                   id="g64"><path
                     d="M 0,0 -108,-108"
                     style="fill:none;stroke:#000000;stroke-width:0.1;stroke-linecap:butt;stroke-linejoin:miter;stroke-miterlimit:10;stroke-dasharray:none;stroke-opacity:1"
                     id="path62"
                     inkscape:connector-curvature="0" /></g></g></g></g><g
             transform="translate(1e-4,108)"
             id="g74"><path
               d="M 0,0 108,-108"
               style="fill:none;stroke:#000000;stroke-width:0.2;stroke-linecap:butt;stroke-linejoin:miter;stroke-miterlimit:10;stroke-dasharray:none;stroke-opacity:1"
               id="path72"
               inkscape:connector-curvature="0" /></g><g
             transform="translate(108.0001,108)"
             id="g78"><path
               d="M 0,0 -108,-108"
               style="fill:none;stroke:#000000;stroke-width:0.2;stroke-linecap:butt;stroke-linejoin:miter;stroke-miterlimit:10;stroke-dasharray:none;stroke-opacity:1"
               id="path76"
               inkscape:connector-curvature="0" /></g></g></g></g><g
       id="g84"
       transform="matrix(1.3315899,0,0,1.3315901,0.02340429,0.02343932)"><g
         id="g86" /><g
         id="g98"><g
           clip-path="url(#clipPath90)"
           id="g96"
           style="opacity:0.30000299"><g
             transform="translate(54,80)"
             id="g94"><path
               d="m 0,0 c -14.359,0 -26,-11.641 -26,-26 0,-14.359 11.641,-26 26,-26 14.359,0 26,11.641 26,26 C 26,-11.641 14.359,0 0,0 m 0,-0.3 c 14.171,0 25.7,-11.529 25.7,-25.7 0,-14.171 -11.529,-25.7 -25.7,-25.7 -14.171,0 -25.7,11.529 -25.7,25.7 0,14.171 11.529,25.7 25.7,25.7"
               style="fill:#000000;fill-opacity:1;fill-rule:nonzero;stroke:none"
               id="path92"
               inkscape:connector-curvature="0" /></g></g></g></g><g
       id="g100"
       transform="matrix(1.3315899,0,0,1.3315901,0.02340429,0.02343932)"><g
         id="g102" /><g
         id="g114"><g
           clip-path="url(#clipPath106)"
           id="g112"
           style="opacity:0.30000299"><g
             transform="translate(54,72)"
             id="g110"><path
               d="m 0,0 c -9.941,0 -18,-8.059 -18,-18 0,-9.941 8.059,-18 18,-18 9.941,0 18,8.059 18,18 C 18,-8.059 9.941,0 0,0 m 0,-0.3 c 9.76,0 17.7,-7.94 17.7,-17.7 0,-9.76 -7.94,-17.7 -17.7,-17.7 -9.76,0 -17.7,7.94 -17.7,17.7 0,9.76 7.94,17.7 17.7,17.7"
               style="fill:#000000;fill-opacity:1;fill-rule:nonzero;stroke:none"
               id="path108"
               inkscape:connector-curvature="0" /></g></g></g></g><g
       id="g116"
       transform="matrix(1.3315899,0,0,1.3315901,0.02340429,0.02343932)"><g
         id="g118" /><g
         id="g130"><g
           clip-path="url(#clipPath122)"
           id="g128"
           style="opacity:0.10000598"><g
             transform="translate(76,36)"
             id="g126"><path
               d="m 0,0 h -44 c -2.209,0 -4,1.791 -4,4 v 28 c 0,2.209 1.791,4 4,4 H 0 c 2.209,0 4,-1.791 4,-4 V 4 C 4,1.791 2.209,0 0,0 Z"
               style="fill:none;stroke:#000000;stroke-width:0.2;stroke-linecap:butt;stroke-linejoin:miter;stroke-miterlimit:10;stroke-dasharray:none;stroke-opacity:1"
               id="path124"
               inkscape:connector-curvature="0" /></g></g></g></g><g
       id="g132"
       transform="matrix(1.3315899,0,0,1.3315901,0.02340429,0.02343932)"><g
         id="g134" /><g
         id="g146"><g
           clip-path="url(#clipPath138)"
           id="g144"
           style="opacity:0.10000598"><g
             transform="translate(36,32)"
             id="g142"><path
               d="m 0,0 v 44 c 0,2.209 1.791,4 4,4 h 28 c 2.209,0 4,-1.791 4,-4 V 0 c 0,-2.209 -1.791,-4 -4,-4 H 4 C 1.791,-4 0,-2.209 0,0 Z"
               style="fill:none;stroke:#000000;stroke-width:0.2;stroke-linecap:butt;stroke-linejoin:miter;stroke-miterlimit:10;stroke-dasharray:none;stroke-opacity:1"
               id="path140"
               inkscape:connector-curvature="0" /></g></g></g></g><g
       id="g148"
       transform="matrix(1.3315899,0,0,1.3315901,0.02340429,0.02343932)"><g
         id="g150" /><g
         id="g162"><g
           clip-path="url(#clipPath154)"
           id="g160"
           style="opacity:0.10000598"><g
             transform="translate(72,32)"
             id="g158"><path
               d="m 0,0 h -36 c -2.2,0 -4,1.8 -4,4 v 36 c 0,2.2 1.8,4 4,4 H 0 c 2.2,0 4,-1.8 4,-4 V 4 C 4,1.8 2.2,0 0,0 Z"
               style="fill:none;stroke:#000000;stroke-width:0.2;stroke-linecap:butt;stroke-linejoin:miter;stroke-miterlimit:10;stroke-dasharray:none;stroke-opacity:1"
               id="path156"
               inkscape:connector-curvature="0" /></g></g></g></g><g
       id="g164"
       transform="matrix(1.3315899,0,0,1.3315901,0.02340429,0.02343932)"><g
         id="g166" /><g
         id="g178"><g
           clip-path="url(#clipPath170)"
           id="g176"
           style="opacity:0.60000598"><g
             transform="translate(54,90)"
             id="g174"><path
               d="m 0,0 c -19.882,0 -36,-16.118 -36,-36 0,-19.882 16.118,-36 36,-36 19.882,0 36,16.118 36,36 C 36,-16.118 19.882,0 0,0 m 0,-0.6 c 19.52,0 35.4,-15.88 35.4,-35.4 0,-19.52 -15.88,-35.4 -35.4,-35.4 -19.52,0 -35.4,15.88 -35.4,35.4 0,19.52 15.88,35.4 35.4,35.4"
               style="fill:#00b28e;fill-opacity:1;fill-rule:nonzero;stroke:none"
               id="path172"
               inkscape:connector-curvature="0" /></g></g></g></g><rect
       style="opacity:0.14900004;fill:#b58900;fill-opacity:1;stroke:none;stroke-width:4.14975023;stroke-linecap:round;stroke-linejoin:round;stroke-miterlimit:4;stroke-dasharray:none;stroke-dashoffset:0;stroke-opacity:1;paint-order:stroke fill markers"
       id="rect6884"
       x="0.023537451"
       y="-143.83517"
       transform="scale(1,-1)"
       width="12"
       height="144" /><rect
       style="display:inline;opacity:0.14900004;fill:#b58900;fill-opacity:1;stroke:none;stroke-width:4.14975023;stroke-linecap:round;stroke-linejoin:round;stroke-miterlimit:4;stroke-dasharray:none;stroke-dashoffset:0;stroke-opacity:1;paint-order:stroke fill markers"
       id="rect6884-3"
       x="132.02354"
       y="-143.83517"
       width="12"
       height="144"
       transform="scale(1,-1)" /><rect
       style="display:inline;opacity:0.14900004;fill:#b58900;fill-opacity:1;stroke:none;stroke-width:4.14975023;stroke-linecap:round;stroke-linejoin:round;stroke-miterlimit:4;stroke-dasharray:none;stroke-dashoffset:0;stroke-opacity:1;paint-order:stroke fill markers"
       id="rect6884-8"
       x="-143.83517"
       y="-144.02354"
       width="12"
       height="144"
       transform="matrix(0,-1,-1,0,0,0)" /><rect
       style="display:inline;opacity:0.14900004;fill:#b58900;fill-opacity:1;stroke:none;stroke-width:4.14975023;stroke-linecap:round;stroke-linejoin:round;stroke-miterlimit:4;stroke-dasharray:none;stroke-dashoffset:0;stroke-opacity:1;paint-order:stroke fill markers"
       id="rect6884-3-7"
       x="-11.835167"
       y="-144.02354"
       width="12"
       height="144"
       transform="matrix(0,-1,-1,0,0,0)" /></g><g
     inkscape:groupmode="layer"
     id="layer1"
     inkscape:label="bg"
     style="display:inline"
     transform="translate(0.09414757,47.905777)"><rect
       style="opacity:1;fill:#eee8d5;fill-opacity:1;stroke:none;stroke-width:5.56444645;stroke-linecap:round;stroke-linejoin:round;stroke-miterlimit:4;stroke-dasharray:none;stroke-dashoffset:0;stroke-opacity:1;paint-order:stroke fill markers"
       id="rect5935"
       width="160"
       height="160"
       x="15.905852"
       y="-31.905777"
       rx="4"
       ry="4" /><path
       d="m 159.822,48.094262 c 0,-35.299561 -28.61676,-63.916315 -63.916323,-63.916315 -35.299567,0 -63.91632,28.616754 -63.91632,63.916315 0,35.299562 28.616753,63.916308 63.91632,63.916308 35.299563,0 63.916323,-28.616746 63.916323,-63.916308 m -1.06527,0 c 0,34.656842 -28.1942,58.851038 -62.851053,58.851038 -34.656853,0 -62.85105,-24.194196 -62.85105,-58.851038 0,-34.656846 28.194197,-62.851043 62.85105,-62.851043 34.656853,0 62.851053,28.194197 62.851053,62.851043"
       style="fill:#b58900;fill-opacity:1;fill-rule:nonzero;stroke:none;stroke-width:1.77545333"
       id="path172-3"
       inkscape:connector-curvature="0"
       sodipodi:nodetypes="csssccsssc" /><g
       id="g6779"
       transform="matrix(1.9229452,0,0,1.9229455,-280.80662,-90.229766)"><path
         inkscape:connector-curvature="0"
         id="path124-1"
         style="opacity:1;fill:#fdf6e3;fill-opacity:1;stroke:#eee8d5;stroke-width:0.26666665;stroke-linecap:butt;stroke-linejoin:miter;stroke-miterlimit:10;stroke-dasharray:none;stroke-opacity:1;filter:url(#filter6774)"
         d="m 225.33333,96.000001 h -58.66667 c -2.94533,0 -5.33333,-2.388 -5.33333,-5.333333 V 53.333335 c 0,-2.945333 2.388,-5.333333 5.33333,-5.333333 h 58.66667 c 2.94533,0 5.33333,2.388 5.33333,5.333333 v 37.333333 c 0,2.945333 -2.388,5.333333 -5.33333,5.333333 z" /><path
         inkscape:connector-curvature="0"
         id="path5845"
         d="m 226.9375,95.675781 c -0.92646,-0.08647 -1.91818,-0.07912 -2.79297,-0.240234 -1.87131,-0.344656 -3.62797,-0.856225 -5.28711,-1.507813 -1.65914,-0.651587 -3.21922,-1.444207 -4.69922,-2.355468 -1.48,-0.911261 -2.879,-1.940777 -4.21289,-3.064454 -1.33389,-1.123676 -2.6034,-2.342026 -3.82422,-3.630859 -1.22081,-1.288833 -2.39437,-2.647955 -3.53515,-4.054687 -2.28156,-2.813465 -4.43609,-5.814897 -6.59571,-8.816407 -2.15961,-3.001509 -4.32306,-6.002963 -6.625,-8.814453 -1.15096,-1.405745 -2.33616,-2.763429 -3.57226,-4.050781 -1.2361,-1.287352 -2.52269,-2.505251 -3.87695,-3.626953 -1.35427,-1.121702 -2.77579,-2.147848 -4.28125,-3.056641 -1.50547,-0.908793 -3.09546,-1.69903 -4.78516,-2.347656 -1.6897,-0.648626 -3.47975,-1.154893 -5.38672,-1.496094 -0.851,-0.152264 -1.81777,-0.140374 -2.7168,-0.224609 -1.99103,0.773673 -3.41211,2.680921 -3.41211,4.945312 v 37.332032 c 0,2.945333 2.3867,5.333984 5.33204,5.333984 h 58.66796 c 0.5687,0 1.08956,-0.159342 1.60352,-0.324219 z"
         style="opacity:1;fill:#fdf6e3;fill-opacity:1;stroke:#eee8d5;stroke-width:0.26666665;stroke-linecap:butt;stroke-linejoin:miter;stroke-miterlimit:10;stroke-dasharray:none;stroke-opacity:1" /><path
         inkscape:connector-curvature="0"
         id="path124-1-8"
         d="m 166.66602,48 c -0.68095,0 -1.32119,0.156015 -1.91993,0.388672 0.89903,0.08423 1.8658,0.07234 2.7168,0.224609 1.90697,0.341201 3.69702,0.847468 5.38672,1.496094 1.6897,0.648626 3.27969,1.438863 4.78516,2.347656 1.50546,0.908793 2.92698,1.934939 4.28125,3.056641 1.35426,1.121702 2.64085,2.339601 3.87695,3.626953 1.2361,1.287352 2.4213,2.645036 3.57226,4.050781 2.30194,2.81149 4.46539,5.812944 6.625,8.814453 2.15962,3.00151 4.31415,6.002942 6.59571,8.816407 1.14078,1.406732 2.31434,2.765854 3.53515,4.054687 1.22082,1.288833 2.49033,2.507183 3.82422,3.630859 1.33389,1.123677 2.73289,2.153193 4.21289,3.064454 1.48,0.911261 3.04008,1.703881 4.69922,2.355468 1.65914,0.651588 3.4158,1.163157 5.28711,1.507813 0.87479,0.161118 1.86651,0.153769 2.79297,0.240234 2.1479,-0.689039 3.72852,-2.633127 3.72852,-5.009765 V 53.333984 C 230.66602,50.388651 228.27931,48 225.33398,48 Z"
         style="opacity:1;fill:#073642;fill-opacity:1;stroke:#eee8d5;stroke-width:0.26666665;stroke-linecap:butt;stroke-linejoin:miter;stroke-miterlimit:10;stroke-dasharray:none;stroke-opacity:1" /></g><rect
       style="fill:#859900;fill-opacity:1;fill-rule:evenodd;stroke:none;stroke-width:0.88841468px;stroke-linecap:butt;stroke-linejoin:miter;stroke-opacity:1"
       id="rect6748"
       width="30"
       height="30"
       x="-53.610504"
       y="257.19418" /><rect
       style="fill:#2aa198;fill-opacity:1;fill-rule:evenodd;stroke:none;stroke-width:0.88841468px;stroke-linecap:butt;stroke-linejoin:miter;stroke-opacity:1;filter:url(#filter6889)"
       id="rect6748-1"
       width="30"
       height="30"
       x="-53.610504"
       y="227.19423" /><rect
       style="fill:#268bd2;fill-opacity:1;fill-rule:evenodd;stroke:none;stroke-width:0.88841468px;stroke-linecap:butt;stroke-linejoin:miter;stroke-opacity:1"
       id="rect6748-1-4"
       width="30"
       height="30"
       x="-53.610504"
       y="197.19423" /><rect
       style="fill:#6c71c4;fill-opacity:1;fill-rule:evenodd;stroke:none;stroke-width:0.88841468px;stroke-linecap:butt;stroke-linejoin:miter;stroke-opacity:1"
       id="rect6748-1-4-5"
       width="30"
       height="30"
       x="-53.610504"
       y="167.19423" /><rect
       style="fill:#d33682;fill-opacity:1;fill-rule:evenodd;stroke:none;stroke-width:0.88841468px;stroke-linecap:butt;stroke-linejoin:miter;stroke-opacity:1"
       id="rect6748-1-4-5-8"
       width="30"
       height="30"
       x="-53.610504"
       y="137.19423" /><rect
       style="fill:#dc322f;fill-opacity:1;fill-rule:evenodd;stroke:none;stroke-width:0.88841468px;stroke-linecap:butt;stroke-linejoin:miter;stroke-opacity:1"
       id="rect6748-1-4-5-8-9"
       width="30"
       height="30"
       x="-53.610504"
       y="107.19425" /><rect
       style="fill:#cb4b16;fill-opacity:1;fill-rule:evenodd;stroke:none;stroke-width:0.88841468px;stroke-linecap:butt;stroke-linejoin:miter;stroke-opacity:1"
       id="rect6748-1-4-5-8-9-5"
       width="30"
       height="30"
       x="-53.610504"
       y="77.194252" /><rect
       style="fill:#b58900;fill-opacity:1;fill-rule:evenodd;stroke:none;stroke-width:0.88841468px;stroke-linecap:butt;stroke-linejoin:miter;stroke-opacity:1"
       id="rect6748-1-4-5-8-9-5-5"
       width="30"
       height="30"
       x="-53.610504"
       y="47.194244" /><rect
       style="fill:#fdf6e3;fill-opacity:1;fill-rule:evenodd;stroke:none;stroke-width:0.88841468px;stroke-linecap:butt;stroke-linejoin:miter;stroke-opacity:1"
       id="rect6748-1-4-5-8-9-5-5-2"
       width="30"
       height="30"
       x="-53.610504"
       y="17.194244" /><rect
       style="fill:#eee8d5;fill-opacity:1;fill-rule:evenodd;stroke:none;stroke-width:0.88841468px;stroke-linecap:butt;stroke-linejoin:miter;stroke-opacity:1"
       id="rect6748-1-4-5-8-9-5-5-2-7"
       width="30"
       height="30"
       x="-53.610504"
       y="-12.805756" /><rect
       style="fill:#93a1a1;fill-opacity:1;fill-rule:evenodd;stroke:none;stroke-width:0.88841468px;stroke-linecap:butt;stroke-linejoin:miter;stroke-opacity:1"
       id="rect6748-1-4-5-8-9-5-5-2-8"
       width="30"
       height="30"
       x="-53.610504"
       y="-42.805756" /><rect
       style="fill:#839496;fill-opacity:1;fill-rule:evenodd;stroke:none;stroke-width:0.88841468px;stroke-linecap:butt;stroke-linejoin:miter;stroke-opacity:1"
       id="rect6748-1-4-5-8-9-5-5-2-7-1"
       width="30"
       height="30"
       x="-53.610504"
       y="-72.805756" /><rect
       style="fill:#657b83;fill-opacity:1;fill-rule:evenodd;stroke:none;stroke-width:0.88841468px;stroke-linecap:butt;stroke-linejoin:miter;stroke-opacity:1"
       id="rect6748-1-4-5-8-9-5-5-2-8-1"
       width="30"
       height="30"
       x="-53.610504"
       y="-102.80576" /><rect
       style="fill:#586e75;fill-opacity:1;fill-rule:evenodd;stroke:none;stroke-width:0.88841468px;stroke-linecap:butt;stroke-linejoin:miter;stroke-opacity:1"
       id="rect6748-1-4-5-8-9-5-5-2-7-1-4"
       width="30"
       height="30"
       x="-53.610504"
       y="-132.80577" /><rect
       style="fill:#073642;fill-opacity:1;fill-rule:evenodd;stroke:none;stroke-width:0.88841468px;stroke-linecap:butt;stroke-linejoin:miter;stroke-opacity:1"
       id="rect6748-1-4-5-8-9-5-5-2-8-1-4"
       width="30"
       height="30"
       x="-53.610504"
       y="-162.80577" /><rect
       style="fill:#002b36;fill-opacity:1;fill-rule:evenodd;stroke:none;stroke-width:0.88841468px;stroke-linecap:butt;stroke-linejoin:miter;stroke-opacity:1"
       id="rect6748-1-4-5-8-9-5-5-2-7-1-4-6"
       width="30"
       height="30"
       x="-53.610504"
       y="-192.80577" /><circle
       style="opacity:1;fill:#dc322f;fill-opacity:1;stroke:none;stroke-width:3.67864299;stroke-linecap:round;stroke-linejoin:round;stroke-miterlimit:4;stroke-dasharray:none;stroke-dashoffset:0;stroke-opacity:1;paint-order:stroke fill markers"
       id="path7034"
       cx="60.919476"
       cy="39.658257"
       r="8" /><circle
       style="display:inline;opacity:1;fill:#dc322f;fill-opacity:1;stroke:none;stroke-width:3.67864299;stroke-linecap:round;stroke-linejoin:round;stroke-miterlimit:4;stroke-dasharray:none;stroke-dashoffset:0;stroke-opacity:1;paint-order:stroke fill markers"
       id="path7034-2"
       cx="124.91948"
       cy="39.658253"
       r="8" /></g></svg>